<?xml version="1.0" encoding="UTF-8" standalone="no"?>
<svg
   xmlns:dc="http://purl.org/dc/elements/1.1/"
   xmlns:cc="http://creativecommons.org/ns#"
   xmlns:rdf="http://www.w3.org/1999/02/22-rdf-syntax-ns#"
   xmlns:svg="http://www.w3.org/2000/svg"
   xmlns="http://www.w3.org/2000/svg"
   xmlns:sodipodi="http://sodipodi.sourceforge.net/DTD/sodipodi-0.dtd"
   xmlns:inkscape="http://www.inkscape.org/namespaces/inkscape"
   aria-hidden="true"
   data-prefix="fas"
   data-icon="circle-notch"
   class="svg-inline--fa fa-circle-notch fa-w-16"
   role="img"
   viewBox="0 0 512 512"
   version="1.1"
   id="svg4"
   sodipodi:docname="pic_mapa.svg"
   inkscape:version="0.92.2 (5c3e80d, 2017-08-06)">
  <title
     id="title4543">pic_mapa</title>
  <metadata
     id="metadata10">
    <rdf:RDF>
      <cc:Work
         rdf:about="">
        <dc:format>image/svg+xml</dc:format>
        <dc:type
           rdf:resource="http://purl.org/dc/dcmitype/StillImage" />
        <dc:title>pic_mapa</dc:title>
      </cc:Work>
    </rdf:RDF>
  </metadata>
  <defs
     id="defs8" />
  <sodipodi:namedview
     pagecolor="#ffffff"
     bordercolor="#666666"
     borderopacity="1"
     objecttolerance="10"
     gridtolerance="10"
     guidetolerance="10"
     inkscape:pageopacity="0"
     inkscape:pageshadow="2"
     inkscape:window-width="1920"
     inkscape:window-height="1027"
     id="namedview6"
     showgrid="false"
     inkscape:zoom="0.32593203"
     inkscape:cx="1638.6629"
     inkscape:cy="-322.66552"
     inkscape:window-x="-8"
     inkscape:window-y="35"
     inkscape:window-maximized="1"
     inkscape:current-layer="layer1" />
  <path
     d="m 288,39.056 v 16.659 c 0,10.804 7.281,20.159 17.686,23.066 C 383.204,100.434 440,171.518 440,256 440,357.689 357.705,440 256,440 154.311,440 72.000004,357.705 72.000004,256 72.000004,171.53 128.786,100.436 206.312,78.781 216.719,75.874 224,66.517 224,55.712 V 39.064 C 224,23.355 209.166,11.911 193.954,15.83 86.603004,43.482 7.3940039,141.206 8.0030039,257.332 8.7230039,394.384 119.48,504.288 256.534,503.999 393.255,503.711 504,392.788 504,256 504,140.367 424.86,43.221 317.789,15.764 302.678,11.889 288,23.456 288,39.056 Z"
     id="path2"
     inkscape:connector-curvature="0"
     style="fill:#307082;fill-opacity:1"
     inkscape:export-xdpi="4.711761"
     inkscape:export-ydpi="4.711761" />
  <g
     inkscape:groupmode="layer"
     id="layer1"
     inkscape:label="Carro"
     style="display:inline">
    <path
       id="path4506"
       d="m 406.25406,189.31291 h -33.75614 l -4.83664,-12.89771 c -5.66061,-15.09558 -15.65718,-27.92802 -28.90776,-37.11112 -13.25058,-9.18309 -28.77661,-14.03636 -44.89814,-14.03636 h -75.71127 c -16.12216,0 -31.64757,4.85388 -44.89816,14.03636 -13.25119,9.1831 -23.24718,22.01554 -28.90778,37.11112 l -4.83664,12.89771 H 105.7454 c -5.04417,0 -8.605454,4.94133 -7.010484,9.72687 l 4.926544,14.77966 a 7.3898305,7.3898305 0 0 0 7.01048,5.05279 h 17.74484 l -0.032,0.0862 c -12.03927,6.74507 -20.18163,19.61815 -20.18163,34.39966 v 29.55932 c 0,9.99167 3.72509,19.10826 9.85311,26.0547 v 37.9905 c 0,8.16268 6.61698,14.77966 14.77966,14.77966 h 29.55932 c 8.16269,0 14.77966,-6.61698 14.77966,-14.77966 v -24.63273 h 157.64972 v 24.63276 c 0,8.16268 6.61698,14.77966 14.77966,14.77966 h 29.5593 c 8.16268,0 14.77966,-6.61698 14.77966,-14.77966 v -37.9905 c 6.12802,-6.94706 9.8531,-16.06365 9.8531,-26.0547 v -29.55932 c 0,-14.78151 -8.14236,-27.65459 -20.18162,-34.39966 l -0.032,-0.0862 h 17.74483 a 7.3898305,7.3898305 0 0 0 7.01049,-5.05279 l 4.92656,-14.77966 c 1.59497,-4.78554 -1.96631,-9.72687 -7.01049,-9.72687 z m -225.01293,0.94097 c 5.73636,-15.29633 20.56652,-25.57373 36.90298,-25.57373 h 75.71127 c 16.33645,0 31.16661,10.2774 36.90296,25.57373 l 8.88443,23.6918 H 172.35671 Z m -28.69902,97.59011 c -10.88337,0 -19.70621,-8.82285 -19.70621,-19.70622 0,-10.88338 8.82284,-19.70622 19.70621,-19.70622 10.88337,0 29.55933,18.67596 29.55933,29.55933 0,10.88337 -18.67596,9.85311 -29.55933,9.85311 z m 206.91523,0 c -10.88335,0 -29.55929,1.03026 -29.55929,-9.85311 0,-10.88337 18.67594,-29.55933 29.55929,-29.55933 10.88338,0 19.70622,8.82284 19.70622,19.70622 0,10.88337 -8.82284,19.70622 -19.70622,19.70622 z"
       inkscape:connector-curvature="0"
       style="fill:#307082;stroke-width:0.61581916;fill-opacity:1"
       inkscape:export-xdpi="4.711761"
       inkscape:export-ydpi="4.711761" />
  </g>
</svg>
