<?xml version="1.0" encoding="UTF-8" standalone="no"?>
<svg
   xmlns:dc="http://purl.org/dc/elements/1.1/"
   xmlns:cc="http://creativecommons.org/ns#"
   xmlns:rdf="http://www.w3.org/1999/02/22-rdf-syntax-ns#"
   xmlns:svg="http://www.w3.org/2000/svg"
   xmlns="http://www.w3.org/2000/svg"
   xmlns:sodipodi="http://sodipodi.sourceforge.net/DTD/sodipodi-0.dtd"
   xmlns:inkscape="http://www.inkscape.org/namespaces/inkscape"
   aria-hidden="true"
   data-prefix="fas"
   data-icon="circle-notch"
   class="svg-inline--fa fa-circle-notch fa-w-16"
   role="img"
   viewBox="0 0 512 512"
   version="1.1"
   id="svg4"
   sodipodi:docname="pic_exemplares2.svg"
   inkscape:version="0.92.2 (5c3e80d, 2017-08-06)"
   inkscape:export-filename=""
   inkscape:export-xdpi="4.711761"
   inkscape:export-ydpi="4.711761">
  <title
     id="title819">pic_exemplares</title>
  <metadata
     id="metadata10">
    <rdf:RDF>
      <cc:Work
         rdf:about="">
        <dc:format>image/svg+xml</dc:format>
        <dc:type
           rdf:resource="http://purl.org/dc/dcmitype/StillImage" />
        <dc:title>pic_exemplares</dc:title>
      </cc:Work>
    </rdf:RDF>
  </metadata>
  <defs
     id="defs8" />
  <sodipodi:namedview
     pagecolor="#ffffff"
     bordercolor="#666666"
     borderopacity="1"
     objecttolerance="10"
     gridtolerance="10"
     guidetolerance="10"
     inkscape:pageopacity="0"
     inkscape:pageshadow="2"
     inkscape:window-width="1920"
     inkscape:window-height="1027"
     id="namedview6"
     showgrid="false"
     inkscape:zoom="0.4609375"
     inkscape:cx="152.85244"
     inkscape:cy="55.957302"
     inkscape:window-x="-8"
     inkscape:window-y="35"
     inkscape:window-maximized="1"
     inkscape:current-layer="svg4" />
  <path
     d="m 288,39.056 v 16.659 c 0,10.804 7.281,20.159 17.686,23.066 C 383.204,100.434 440,171.518 440,256 440,357.689 357.705,440 256,440 154.311,440 72.000004,357.705 72.000004,256 72.000004,171.53 128.786,100.436 206.312,78.781 216.719,75.874 224,66.517 224,55.712 V 39.064 C 224,23.355 209.166,11.911 193.954,15.83 86.603004,43.482 7.3940039,141.206 8.0030039,257.332 8.7230039,394.384 119.48,504.288 256.534,503.999 393.255,503.711 504,392.788 504,256 504,140.367 424.86,43.221 317.789,15.764 302.678,11.889 288,23.456 288,39.056 Z"
     id="path2"
     inkscape:connector-curvature="0"
     style="fill:#307082;fill-opacity:1"
     inkscape:export-xdpi="4.711761"
     inkscape:export-ydpi="4.711761" />
  <g
     inkscape:groupmode="layer"
     id="layer2"
     inkscape:label="livro"
     style="display:inline">
    <path
       id="path815"
       d="M 366.10145,312.07158 V 142.24107 c 0,-6.72245 -5.25932,-12.13074 -11.7966,-12.13074 H 193.0845 c -26.05085,0 -47.18644,21.73426 -47.18644,48.523 v 161.74334 c 0,26.78874 21.13559,48.52301 47.18644,48.52301 h 161.22035 c 6.53728,0 11.7966,-5.4083 11.7966,-12.13076 v -8.08716 c 0,-3.79087 -1.72034,-7.22791 -4.37458,-9.45188 -2.0644,-7.78391 -2.0644,-29.97306 0,-37.75696 2.65424,-2.17343 4.37458,-5.61047 4.37458,-9.40134 z M 208.81332,197.84035 c 0,-1.66798 1.32711,-3.03269 2.94914,-3.03269 h 104.2034 c 1.62202,0 2.94916,1.36471 2.94916,3.03269 v 10.10896 c 0,1.66798 -1.32714,3.03268 -2.94916,3.03268 h -104.2034 c -1.62203,0 -2.94914,-1.3647 -2.94914,-3.03268 z m 0,32.34867 c 0,-1.66798 1.32711,-3.03268 2.94914,-3.03268 h 104.2034 c 1.62202,0 2.94916,1.3647 2.94916,3.03268 v 10.10896 c 0,1.66798 -1.32714,3.03268 -2.94916,3.03268 h -104.2034 c -1.62203,0 -2.94914,-1.3647 -2.94914,-3.03268 z M 333.36586,356.55101 H 193.0845 c -8.7,0 -15.72881,-7.22791 -15.72881,-16.17434 0,-8.89588 7.07796,-16.17434 15.72881,-16.17434 h 140.28136 c -0.9339,8.64316 -0.9339,23.70552 0,32.34868 z"
       inkscape:connector-curvature="0"
       style="fill:#307082;stroke-width:0.49843806;fill-opacity:1"
       inkscape:export-xdpi="4.711761"
       inkscape:export-ydpi="4.711761" />
  </g>
</svg>
