<?xml version="1.0" encoding="UTF-8" standalone="no"?>
<!-- Created with Inkscape (http://www.inkscape.org/) -->

<svg
   xmlns:dc="http://purl.org/dc/elements/1.1/"
   xmlns:cc="http://creativecommons.org/ns#"
   xmlns:rdf="http://www.w3.org/1999/02/22-rdf-syntax-ns#"
   xmlns:svg="http://www.w3.org/2000/svg"
   xmlns="http://www.w3.org/2000/svg"
   xmlns:sodipodi="http://sodipodi.sourceforge.net/DTD/sodipodi-0.dtd"
   xmlns:inkscape="http://www.inkscape.org/namespaces/inkscape"
   width="102.4483mm"
   height="102.4483mm"
   viewBox="0 0 102.4483 102.4483"
   version="1.1"
   id="svg2056"
   inkscape:version="0.92.2 (5c3e80d, 2017-08-06)"
   sodipodi:docname="livro.svg">
  <defs
     id="defs2050" />
  <sodipodi:namedview
     id="base"
     pagecolor="#ffffff"
     bordercolor="#666666"
     borderopacity="1.0"
     inkscape:pageopacity="0.0"
     inkscape:pageshadow="2"
     inkscape:zoom="0.7"
     inkscape:cx="5.0813107"
     inkscape:cy="187.92969"
     inkscape:document-units="mm"
     inkscape:current-layer="layer1"
     showgrid="false"
     inkscape:window-width="1680"
     inkscape:window-height="997"
     inkscape:window-x="1912"
     inkscape:window-y="-8"
     inkscape:window-maximized="1"
     fit-margin-top="0"
     fit-margin-left="0"
     fit-margin-right="0"
     fit-margin-bottom="0" />
  <metadata
     id="metadata2053">
    <rdf:RDF>
      <cc:Work
         rdf:about="">
        <dc:format>image/svg+xml</dc:format>
        <dc:type
           rdf:resource="http://purl.org/dc/dcmitype/StillImage" />
        <dc:title></dc:title>
      </cc:Work>
    </rdf:RDF>
  </metadata>
  <g
     inkscape:label="Layer 1"
     inkscape:groupmode="layer"
     id="layer1"
     transform="translate(-10.488841,-15.691221)">
    <g
       id="g4546"
       transform="matrix(3.104494,0,0,3.1608138,10.488841,14.761942)"
       style="display:inline;fill:#307082;fill-opacity:1">
      <path
         id="path4544"
         d="m 7.282,32.706 c -0.081,0 -0.163,-0.02 -0.237,-0.06 C 6.883,32.559 6.782,32.389 6.782,32.206 V 25.082 C 2.405,22.806 0,18.821 0,13.828 0,6.112 7.093,0.294 16.5,0.294 c 9.407,0 16.5,5.818 16.5,13.534 0,7.715 -7.093,13.533 -16.5,13.533 -0.309,0 -0.612,-0.017 -0.916,-0.033 l -0.02,-10e-4 -8.007,5.296 C 7.474,32.678 7.378,32.706 7.282,32.706 Z M 16.5,1.294 C 7.664,1.294 1,6.683 1,13.828 c 0,3.323 1.128,7.842 6.503,10.499 0.17,0.084 0.278,0.258 0.278,0.448 v 6.501 l 7.369,-4.874 c 0.09,-0.06 0.199,-0.095 0.302,-0.082 l 0.186,0.01 c 0.286,0.016 0.571,0.031 0.861,0.031 8.836,0 15.5,-5.388 15.5,-12.533 C 31.999,6.683 25.336,1.294 16.5,1.294 Z"
         inkscape:connector-curvature="0"
         style="fill:#307082;fill-opacity:1" />
    </g>
    <g
       transform="matrix(3.104494,0,0,3.1608138,10.488841,14.761942)"
       id="g4550"
       style="display:inline;fill:#307082;fill-opacity:1">
      <path
         inkscape:connector-curvature="0"
         d="m 7.282,32.706 c -0.081,0 -0.163,-0.02 -0.237,-0.06 C 6.883,32.559 6.782,32.389 6.782,32.206 V 25.082 C 2.405,22.806 0,18.821 0,13.828 0,6.112 7.093,0.294 16.5,0.294 c 9.407,0 16.5,5.818 16.5,13.534 0,7.715 -7.093,13.533 -16.5,13.533 -0.309,0 -0.612,-0.017 -0.916,-0.033 l -0.02,-10e-4 -8.007,5.296 C 7.474,32.678 7.378,32.706 7.282,32.706 Z M 16.5,1.294 C 7.664,1.294 1,6.683 1,13.828 c 0,3.323 1.128,7.842 6.503,10.499 0.17,0.084 0.278,0.258 0.278,0.448 v 6.501 l 7.369,-4.874 c 0.09,-0.06 0.199,-0.095 0.302,-0.082 l 0.186,0.01 c 0.286,0.016 0.571,0.031 0.861,0.031 8.836,0 15.5,-5.388 15.5,-12.533 C 31.999,6.683 25.336,1.294 16.5,1.294 Z"
         id="path4548"
         style="fill:#307082;fill-opacity:1" />
    </g>
    <g
       style="display:inline;fill:#307082;fill-opacity:1"
       id="g4422"
       transform="matrix(0.20564098,0,0,0.20564098,31.75033,26.79538)">
      <g
         id="g4365"
         style="fill:#307082;fill-opacity:1">
        <g
           id="g4363"
           style="fill:#307082;fill-opacity:1">
          <path
             id="path4361"
             d="M 287.034,60.873 266.215,60.872 V 39.321 c 0,-4.934 -3.61,-9.126 -8.49,-9.856 -0.852,-0.128 -21.134,-3.074 -45.557,1.37 C 184.941,35.789 163.227,48.006 148.5,66.475 133.772,48.006 112.058,35.789 84.832,30.835 60.408,26.392 40.126,29.337 39.275,29.465 c -4.88,0.731 -8.49,4.923 -8.49,9.856 V 60.872 H 9.966 C 4.463,60.872 0,65.335 0,70.839 v 187.805 c 0,3.227 1.562,6.254 4.193,8.124 2.631,1.87 6.004,2.35 9.051,1.288 0.748,-0.259 75.431,-25.747 131.12,-0.345 2.628,1.199 5.645,1.199 8.273,0 55.533,-25.33 130.376,0.088 131.12,0.345 1.068,0.372 2.174,0.555 3.276,0.555 2.043,0 4.065,-0.628 5.775,-1.842 2.631,-1.87 4.193,-4.897 4.193,-8.124 V 70.84 C 297,65.336 292.538,60.873 287.034,60.873 Z M 19.933,245.309 V 80.805 h 10.852 v 132.726 c 0,2.896 1.267,5.646 3.458,7.539 2.191,1.893 5.105,2.742 7.969,2.319 0.55,-0.08 43.846,-6.024 75.478,15.679 -38.965,-6.663 -77.963,1.044 -97.757,6.241 z M 138.534,230.08 c -13.932,-12.588 -32.079,-21.1 -53.702,-25.034 -10.406,-1.894 -20.06,-2.446 -27.78,-2.446 -2.292,0 -4.414,0.049 -6.333,0.126 V 48.473 h -10e-4 c 19.155,-0.864 65.752,1.184 87.816,38.587 z M 158.466,87.061 c 21.985,-37.243 68.655,-39.384 87.816,-38.563 v 154.228 c -8.383,-0.338 -20.62,-0.136 -34.114,2.32 -21.623,3.934 -39.77,12.445 -53.702,25.034 z m 20.811,152.013 c 31.636,-21.716 74.955,-15.766 75.495,-15.686 2.871,0.431 5.783,-0.413 7.981,-2.305 2.198,-1.894 3.462,-4.65 3.462,-7.552 V 80.806 h 10.852 v 164.503 c -19.8,-5.199 -58.814,-12.909 -97.79,-6.235 z"
             inkscape:connector-curvature="0"
             style="fill:#307082;fill-opacity:1" />
        </g>
      </g>
      <g
         id="g4367"
         style="fill:#307082;fill-opacity:1" />
      <g
         id="g4369"
         style="fill:#307082;fill-opacity:1" />
      <g
         id="g4371"
         style="fill:#307082;fill-opacity:1" />
      <g
         id="g4373"
         style="fill:#307082;fill-opacity:1" />
      <g
         id="g4375"
         style="fill:#307082;fill-opacity:1" />
      <g
         id="g4377"
         style="fill:#307082;fill-opacity:1" />
      <g
         id="g4379"
         style="fill:#307082;fill-opacity:1" />
      <g
         id="g4381"
         style="fill:#307082;fill-opacity:1" />
      <g
         id="g4383"
         style="fill:#307082;fill-opacity:1" />
      <g
         id="g4385"
         style="fill:#307082;fill-opacity:1" />
      <g
         id="g4387"
         style="fill:#307082;fill-opacity:1" />
      <g
         id="g4389"
         style="fill:#307082;fill-opacity:1" />
      <g
         id="g4391"
         style="fill:#307082;fill-opacity:1" />
      <g
         id="g4393"
         style="fill:#307082;fill-opacity:1" />
      <g
         id="g4395"
         style="fill:#307082;fill-opacity:1" />
    </g>
  </g>
</svg>
