<?xml version="1.0" encoding="UTF-8" standalone="no"?>
<!-- Created with Inkscape (http://www.inkscape.org/) -->

<svg
   xmlns:dc="http://purl.org/dc/elements/1.1/"
   xmlns:cc="http://creativecommons.org/ns#"
   xmlns:rdf="http://www.w3.org/1999/02/22-rdf-syntax-ns#"
   xmlns:svg="http://www.w3.org/2000/svg"
   xmlns="http://www.w3.org/2000/svg"
   xmlns:sodipodi="http://sodipodi.sourceforge.net/DTD/sodipodi-0.dtd"
   xmlns:inkscape="http://www.inkscape.org/namespaces/inkscape"
   width="9.260417mm"
   height="9.260417mm"
   viewBox="0 0 9.260417 9.260417"
   version="1.1"
   id="svg9096"
   inkscape:version="0.92.2 (5c3e80d, 2017-08-06)"
   sodipodi:docname="regmisc.svg">
  <defs
     id="defs9090" />
  <sodipodi:namedview
     id="base"
     pagecolor="#ffffff"
     bordercolor="#666666"
     borderopacity="1.0"
     inkscape:pageopacity="0.0"
     inkscape:pageshadow="2"
     inkscape:zoom="15.839192"
     inkscape:cx="14.00237"
     inkscape:cy="12.79549"
     inkscape:document-units="mm"
     inkscape:current-layer="layer1"
     showgrid="false"
     inkscape:window-width="1680"
     inkscape:window-height="997"
     inkscape:window-x="1912"
     inkscape:window-y="-8"
     inkscape:window-maximized="1"
     fit-margin-top="0"
     fit-margin-left="0"
     fit-margin-right="0"
     fit-margin-bottom="0" />
  <metadata
     id="metadata9093">
    <rdf:RDF>
      <cc:Work
         rdf:about="">
        <dc:format>image/svg+xml</dc:format>
        <dc:type
           rdf:resource="http://purl.org/dc/dcmitype/StillImage" />
        <dc:title></dc:title>
      </cc:Work>
    </rdf:RDF>
  </metadata>
  <g
     inkscape:label="Layer 1"
     inkscape:groupmode="layer"
     id="layer1"
     transform="translate(51.499256,-108.67336)">
    <g
       transform="matrix(0.2806187,0,0,0.28570952,-51.499256,108.58936)"
       id="g9333"
       style="display:inline;fill:#307082;fill-opacity:1"
       inkscape:export-filename="C:\Users\Izidoro\Desktop\icones opac\_trabalho\35px\path9316.png"
       inkscape:export-xdpi="96"
       inkscape:export-ydpi="96">
      <path
         inkscape:connector-curvature="0"
         d="m 7.282,32.706 c -0.081,0 -0.163,-0.02 -0.237,-0.06 C 6.883,32.559 6.782,32.389 6.782,32.206 V 25.082 C 2.405,22.806 0,18.821 0,13.828 0,6.112 7.093,0.294 16.5,0.294 c 9.407,0 16.5,5.818 16.5,13.534 0,7.715 -7.093,13.533 -16.5,13.533 -0.309,0 -0.612,-0.017 -0.916,-0.033 l -0.02,-10e-4 -8.007,5.296 C 7.474,32.678 7.378,32.706 7.282,32.706 Z M 16.5,1.294 C 7.664,1.294 1,6.683 1,13.828 c 0,3.323 1.128,7.842 6.503,10.499 0.17,0.084 0.278,0.258 0.278,0.448 v 6.501 l 7.369,-4.874 c 0.09,-0.06 0.199,-0.095 0.302,-0.082 l 0.186,0.01 c 0.286,0.016 0.571,0.031 0.861,0.031 8.836,0 15.5,-5.388 15.5,-12.533 C 31.999,6.683 25.336,1.294 16.5,1.294 Z"
         id="path9331"
         style="fill:#307082;fill-opacity:1" />
    </g>
    <path
       id="path9316"
       d="m -44.181239,111.43192 v -0.77339 h -2.706879 l -0.386707,-0.77341 h -1.546786 l -0.386693,0.77341 h -0.386708 v 4.25368 h 5.413773 l 0.773401,-3.48029 z m 0.348036,0.3867 -0.618727,2.70688 -4.6017,-0.0386 0.889402,-2.66822 z m -5.375101,-0.7734 h 0.232018 l 0.386693,-0.77339 h 1.005419 l 0.464037,0.77339 h 2.552206 v 0.3867 h -3.866988 l -0.773385,2.28152 z"
       inkscape:connector-curvature="0"
       style="display:inline;fill:#307082;fill-opacity:1;stroke-width:0.38669768"
       inkscape:export-filename="C:\Users\Izidoro\Desktop\icones opac\_trabalho\35px\path9316.png"
       inkscape:export-xdpi="96"
       inkscape:export-ydpi="96" />
  </g>
</svg>
