<svg version="1" xmlns="http://www.w3.org/2000/svg" width="1201.333" height="1201.333" viewBox="0 0 901.000000 901.000000"><path d="M366.6 20.9c-4.2 11.5-7.6 21.2-7.6 21.5 0 .3 2.8.6 6.3.6h6.3l10.6-21.5L392.9 0h-18.6l-7.7 20.9zM49.6 56.1C39.1 58.6 27.2 67.9 19.5 80c-12.3 19-17.7 40.6-18 71.5-.2 16.3.3 22.3 3 39 .9 5.5 5 18.1 8.1 25.1 8 18.1 21.8 30.5 37.3 33.4 11.8 2.2 26.4-.7 36.1-7.3 4.7-3.2 14-12.5 14-14 0-1.6-9.2-18.7-10.1-18.7-.5 0-1.5 1.3-2.3 2.8-2.1 4.1-9 10-14.4 12.4-7.1 3.2-18.1 3-24.7-.4-10.2-5.2-19.2-18.4-23.5-34-1.9-7-2.4-9.5-3.5-18.3-.7-5.1-.8-28.9-.1-33.5.3-1.9.8-5.6 1.1-8.1 2-16.9 10.2-35.7 19.1-43.8 6.7-6.1 12.1-8 21.9-7.5 10.7.5 16.4 2.1 22.4 6.3l2.8 2 2.6-9.2c3.8-13.6 4-12.5-2.8-16.3-3.3-1.8-8.2-3.9-11-4.5-6.5-1.5-22.9-1.9-27.9-.8zM164.3 55.9c-.8.5-6.4 19.4-35.3 119.1-14.9 51.2-20.1 69.5-20.3 70.4-.1.7 3.4 1.1 10 1.2l10.3.2.9-3.7c.5-2 2.4-9.2 4.1-16.1 1.8-6.9 3.6-14.2 4.1-16.3l1-3.7h25.4c23.3 0 25.4.1 25.9 1.7.2 1 1.5 6.1 2.7 11.3 1.2 5.2 3.1 13.3 4.3 18l2.1 8.5 10.3.1c9 .1 10.2-.1 9.8-1.5-.3-.9-1.6-5.9-3-11.1-1.3-5.2-5.7-21.4-9.6-36-4-14.6-7.4-27.2-7.6-28-.2-.8-1.5-5.8-2.9-11-1.5-5.2-4.1-15.1-6-22-1.8-6.9-4.2-16-5.4-20.3-1.2-4.4-3.5-12.9-5.2-19-1.7-6.2-3.2-11.9-3.4-12.7-.2-.8-1.3-4.9-2.4-9-1.2-4.1-2.8-10.3-3.7-13.7-1.5-5.9-3.6-8.1-6.1-6.4zm3.1 58.1c.2 1.4 2.8 12.4 5.6 24.5 2.9 12.1 5.4 22.9 5.6 24 .2 1.1 1.7 7.3 3.3 13.7l2.8 11.8h-40.4l1.2-5.3c1.8-7.7 18.5-72.9 19.2-75.2.5-1.7.7-1.6 1.4 1 .5 1.6 1.1 4.1 1.3 5.5zM368.6 55.8c-.2.4-3.4 10.8-6.9 23.2-3.6 12.4-8.6 29.5-11 38-2.5 8.5-7 24-10.1 34.5-3 10.4-10.2 35.4-16.1 55.5-5.8 20.1-10.8 37.2-11 38.1-.3 1.5.9 1.7 10.1 1.6 10.4 0 10.4 0 11-2.6.3-1.4 2.2-8.7 4.1-16.1 1.9-7.4 3.6-14.3 3.8-15.3 1.3-6.1-.8-5.7 27-5.7h25.3l4.2 17.5c2.3 9.6 4.3 18.1 4.4 18.8.4 3 1.8 3.4 10.4 3.5 10.4 0 11.7-.5 10.3-3.9-.5-1.3-4.2-14.6-8.2-29.4-3.9-14.9-9.3-34.9-11.9-44.5-2.6-9.6-7.1-26.3-10-37-2.8-10.7-5.7-21.8-6.5-24.5-.8-2.8-2.6-9.3-3.9-14.5-1.4-5.2-3-10.9-3.5-12.5-.5-1.7-2.1-7.7-3.6-13.5-1.6-5.8-2.9-10.6-3-10.8-.5-.7-4.5-1-4.9-.4zm4.7 62.9c2.1 9.2 8.2 35.4 11.2 48.3 2.3 9.4 3.8 16 4.2 18.2l.5 2.8H369c-15.7 0-20.1-.3-19.8-1.3.3-.6 4.9-18.9 10.4-40.4 5.4-21.6 10.2-39.3 10.5-39.3.3 0 1.8 5.3 3.2 11.7zM571.6 57C556 62.5 544.9 76.3 537 99.7c-8.1 24.3-9.8 56.9-4.5 87.5 4.8 27.2 17.9 50.4 33 58 17.7 9 40.4 4.5 54.3-10.7 15.8-17.3 23-43.7 23-85.1 0-10.5-.4-21-.8-23.5-.5-2.4-1.1-6.4-1.5-8.9-3.8-26.6-17.2-49.3-33.7-57-8.2-3.9-9.4-4.1-20.3-4.6-7.3-.4-10.1-.1-14.9 1.6zm26.7 24c6.8 3.2 12 8.8 16.1 17.2 4.4 9.1 6.4 16.9 8 31.2 2.3 21.6.9 46.3-3.5 62.6-4.4 16.3-12.4 27.8-22.1 32-6.8 2.9-16.7 3.2-22 .6-11.9-5.8-20.6-23.7-24.3-50-1.5-10.8-1.7-34.8-.4-46.1 2.8-24.9 12.4-43.8 24.6-48.5 6.6-2.5 17.1-2.1 23.6 1zM710.8 56.5c-27.1 6.7-47.1 36-51.5 75.3-1.4 11.8-.8 39.9 1.1 51 6 36.9 23.5 60.9 48.1 66 6.7 1.4 19.5.8 27.5-1.3 8.5-2.2 19.5-7.7 25.4-12.7l4.6-4-.2-41.1-.3-41.2h-37l-.1 10.7c-.1 9.2.1 10.8 1.5 10.9.9.1 5.1.1 9.4.1l7.7-.1v22.2c0 24.8.2 23.8-7.7 29.5-11.3 7.9-30.1 5.8-41.2-4.8-7-6.6-14.2-20.1-16.7-31-.4-1.9-.8-3.7-.9-4-.5-1.7-1.6-8-2-11-.6-4.4-.6-29.7-.1-33 .6-3.5 1.7-11.9 1.7-12.5 0-.2.6-2.3 1.4-4.5.8-2.2 1.2-4 1-4-.7 0 4.5-12.2 7.1-16.9 4.4-7.5 8.1-11.7 13.7-15.4 13.6-9 28.8-8.3 41.6 2 2.5 2.1 4.9 4.2 5.3 4.7.4.6 1 .8 1.3.4.6-.5 6-15 7.2-19.1.7-2.3-6.7-9.3-13.2-12.6-9.8-4.9-23.6-6.3-34.7-3.6zM831.5 56.4c-7.3 2.2-11.2 4.5-16.9 9.6-12.8 11.8-22.8 35.5-26.1 62-1.9 15.2-.7 49.7 2.1 61 .3 1.4.8 3.3 1 4.4 3 15.3 10.9 32.5 19.1 41.6 8.8 9.7 17.5 14 29.5 14.5 32.6 1.3 53.3-23.8 59.4-72 1-8 1.1-42.2.1-50.9-4.2-37.8-19.3-62.5-42.5-69.5-6.9-2.1-20-2.5-25.7-.7zm25.2 24.9c16.3 8.3 24.4 30.7 24.5 68.2.1 40.9-9.2 66.9-26.7 74.6-20.2 8.8-35.7-3.7-43.5-35.1-2.9-11.5-3.1-14-3.5-36-.3-19.4 0-23.4 3-40 1-5.4 6.2-17.7 9.5-22.5 6.2-8.9 13.5-12.5 24.6-12 5.1.2 8.5 1 12.1 2.8zM204.3 58.9c-.5.3-.9 5.4-.9 11.3 0 8.8.3 10.7 1.6 11 .8.2 10.6.3 21.8.3l20.2-.1v165.4l9.3-.1 9.2-.2.1-82c.1-45.1.2-82.2.3-82.5.1-.3 10.1-.6 22.4-.6l22.2.1.3-11.6.3-11.6h-53c-29.2 0-53.4.3-53.8.6zM439.6 59c-.2.3-.3 42.6-.3 94.1v93.6l40.1-.1 40.1-.1v-23H458V58l-9.1.2c-5 .1-9.2.5-9.3.8zM199.9 272.9c-.1.9 0 4.7 0 8.4.1 6.1-.1 6.8-1.6 6.3-13.2-3.8-30.8-1.8-40.1 4.6-4.4 3-8.1 9.1-8.2 13.3-.1 9.5 7 17.2 18.4 19.9 7.1 1.7 24.2.1 27.1-2.5 1.5-1.4 4.5-1 4.5.6 0 1.7.5 1.8 7 1.5 2.5-.1 4.7-.5 5-1 .4-.6.5-47 .1-51.5-.1-.6-2.8-1-6.1-1.1-4.7 0-6 .3-6.1 1.5zm-3.4 20l3 .7.2 11.2.2 11.1-6.4 2c-7.8 2.4-19.4 2.3-24.1-.2-3.4-1.8-6.4-7-6.4-11.1s2.6-9.3 5.5-11.2c5.7-3.8 19-5 28-2.5zM709.9 271.4c-.1.1-.2 12.1-.3 26.8l-.2 26.8H722l-.3-26.8-.2-26.7-5.7-.1h-5.9zM740.5 271.8c-.3.3-.5 12.3-.5 26.8v26.2l3.3.3c1.7.2 4.6.3 6.3.1l3.1-.3-.1-13.6c-.1-9.9.3-14 1.2-15 2.9-2.8 17.5-5.3 23.8-4.1 7.2 1.5 7.9 3 8.1 18.5.1 7.4.3 13.7.5 13.9 1 .9 11 .6 11.6-.3.6-.9.7-10.6.3-26-.1-4.4-5.4-9.6-11.4-11.2-4.6-1.3-16.1-1.7-20.6-.7-1.3.3-4.7 1.3-7.5 2.2-2.8 1-5.3 1.7-5.6 1.6-.2-.1-.4-4.4-.5-9.4v-9.3l-5.8-.1c-3.1 0-5.9.2-6.2.4zM4 274l-3.4.5v50l2.9.5c1.6.3 4.6.3 6.7.2l3.8-.4-.3-9.5c-.2-7.1.1-9.7 1.1-10 .7-.3 4.1-.6 7.5-.7l6.2-.1L44 314.7 59.5 325h17l-3.5-2.3c-1.9-1.3-9.5-6.1-16.7-10.7-7.3-4.6-13.3-8.7-13.3-9 0-.3 2.2-1.2 5-1.9 6.7-1.7 12.7-6.2 13.8-10.3 2.6-9.7-8.1-16.2-27.3-16.8-18.2-.5-27.2-.5-30.5 0zm36.9 7c10.4 2.8 10 13.2-.7 16.4-6.4 1.8-26.2 2.2-26.3.4 0-.7-.2-5-.2-9.5-.2-6.6.1-8.3 1.3-8.5 3.3-.7 22.3.2 25.9 1.2zM370.5 273.7c-11.3 2.2-20.8 6.6-25.4 11.8-4.1 4.7-5.3 7.7-5.3 14-.2 11.2 7.7 19.6 22.7 24.2 8.5 2.5 32.9 2.5 43.8 0 4.2-1 7.7-2.1 7.8-2.5 0-.4.2-2 .4-3.5.4-3.4-1.4-4.4-4.7-2.6-8.6 4.7-30.6 6.3-40.5 3-12.7-4.3-19-14.8-14.8-24.8 4.1-9.9 14.3-14.6 31.1-14.4 8 .1 19.8 2.7 25.5 5.7 2.3 1.1 2.9 1.2 3 .2 0-.7.2-2.6.3-4.1.2-3.6-.9-4.1-10.9-6.1-7.2-1.3-27.9-1.9-33-.9zM816.1 273.8c-1.2.4-1.6 6.2-.3 6.3 4.2.4 10.6.3 12-.2 1.1-.4 1.7-1.7 1.7-3.5 0-2.9 0-2.9-6.1-2.9-3.4-.1-6.6.1-7.3.3zM102.5 286.5C87.1 289.3 79 296 79 305.9c0 8.5 5.2 14.1 16.5 17.7 7.3 2.3 30.6 2.6 39.8.6 5.6-1.3 5.7-1.4 5.7-4.9 0-2.9-.3-3.4-1.7-2.8-14.4 5.5-38.2 4.6-44-1.7-2.6-2.9-4.6-6.8-3.9-7.6.3-.3 11.7-.6 25.4-.7 13.6-.1 25-.3 25.4-.4.4 0 .5-1.3.4-2.9-.2-1.5-.4-3.5-.5-4.4-.2-2.8-5.3-7.9-9.9-9.9-7.7-3.3-19.2-4.2-29.7-2.4zm19 5.6c4.6 1.2 8.1 4.1 8.7 7.4.3 1.9-.4 1.9-18.9 2-21.3.1-22-.2-16.2-5.6 4.7-4.4 16.9-6.2 26.4-3.8zM254.8 285.5c-.2.1-2.3.5-4.8.8-11.4 1.5-20 6.4-23 13-5.4 11.7 1.6 21.2 18.5 25.3 5.3 1.3 23.2 1.6 30.3.5 12.2-2 11.9-1.8 11.9-5.7 0-1.9-.2-3.4-.4-3.4-.1 0-3.7.9-7.9 2.1-7.6 2.1-20.4 2.8-27.3 1.5-3.9-.8-10.3-3.9-11.9-5.9-.7-.8-1.4-2.7-1.8-4.3l-.6-2.9 25.6.1H289v-3.4c0-7.7-5.3-13.3-14.7-15.6-5.3-1.4-18.7-2.8-19.5-2.1zm15.8 7.6c3.5 1.7 6.4 5.1 6.4 7.8 0 1.1-38.3.8-38.6-.4-.7-2.4 5.4-7.2 10.9-8.6 6-1.4 16.9-.8 21.3 1.2zM443.3 286.6c-9.3 1.6-15.5 4.6-19.3 9.5-2.6 3.2-3.2 4.8-3.2 9.3-.3 12.7 12 20.7 32 20.6 9.6 0 13.3-.5 19.6-2.7 16.7-5.9 19.1-24.2 4.3-32.7-8-4.5-21.2-6.1-33.4-4zm20.9 6.4c5.9 2.2 7.3 3.6 8.8 8.6 2.4 8.2-2.2 15.8-11 18.1-5.6 1.5-16.5.8-20.7-1.4-5-2.6-7.2-5.9-7.7-11.5-.4-5.4 1.6-9.6 5.9-12.4 5.3-3.5 17.4-4.1 24.7-1.4zM527.9 286.1c-3.1.4-7.9 1.7-10.7 2.7l-5.2 2v-2.1c0-2-.5-2.2-5.2-2.1-2.9.1-5.8.2-6.4.3-.7.1-1.1 6.2-1.1 19.1v19h12.6v-11.3c-.1-18.2-.2-17.3 2.9-18.5 12.6-5 26.5-4.3 29.1 1.4.6 1.5 1.1 7.8 1.1 15.4v12.9l2.8.3c1.5.2 4.3.1 6.2 0l3.6-.4-.2-13.1c-.2-17.3 0-16.1-3-19.6-4.2-5-15.3-7.5-26.5-6zM605.8 285.6c-.2.1-3.7.4-7.8.7-4.1.3-9.3 1.1-11.4 1.7-21.2 6.3-22.1 28.4-1.3 35.5 8.9 3 37 2.5 40.3-.7.4-.5.8-2.2.9-3.9.2-2.7-.1-3-1.9-2.4-16.8 4.8-26.7 5.1-34.8.9-3.8-2-6.8-7-6.8-11.4 0-11.6 14.6-17.3 32.7-13 4.3 1 8.5 2.1 9.4 2.5 1.4.5 1.6 0 1.4-2.5-.3-3.9-1.1-4.7-5.2-5.5-5.7-.9-15.3-2.2-15.5-1.9zM657.3 286.2c-15.7 2.4-25.3 10.5-24.5 20.8.6 8.9 5.9 13.7 18.9 17.1 6.1 1.5 10.1 1.8 20.2 1.5 6.9-.2 15-.9 17.9-1.5 5-1.2 5.2-1.4 5.2-4.7 0-1.9-.2-3.4-.5-3.4s-3.9.9-8 2.1c-12.3 3.3-27.4 2.8-34.7-1.4-3.6-1.9-7.7-8.1-6.3-9.5.3-.3 11.9-.6 25.8-.7h25.2l-.2-3.8c-.4-6.8-4-11.2-11.7-14.6-5.2-2.2-19-3.2-27.3-1.9zm18.1 5.9c4.7 1.2 8.6 4.7 8.6 7.8 0 1.5-2.1 1.6-18.9 1.6-10.4 0-19.2-.3-19.5-.6-1.7-1.7 5.5-7.4 11.4-9.2 3.3-.9 14-.7 18.4.4zM869.8 285.5c-.2.1-4.8.5-10.3.8-10.6.7-12.8 1.8-11.8 5.8.4 1.5 1.2 1.9 2.7 1.5 3.7-.8 13.9-1.9 20.1-2.1 10.7-.2 17.5 2.3 17.5 6.7 0 1.5-.9 1.8-6.2 1.9-28.2.5-42.3 5.9-39.7 15.2 1 3.8 2.5 5.5 7.3 8 3.6 1.9 5.7 2.2 16.1 2.2 9.9-.1 12.9-.5 17.3-2.2 5-2 5.2-2 5.2-.2 0 1.4.7 1.9 2.8 2 1.5 0 4 .2 5.5.3 1.5.1 3.2-.3 3.6-.9.6-.8.8-24.2.2-29.1-.2-2.2-5.1-6.1-9.3-7.3-2.4-.7-6.5-1.5-9.3-1.7-2.7-.3-6.4-.6-8.2-.8-1.8-.2-3.3-.3-3.5-.1zm18.3 22.8c.3 7.5 0 8-6.6 9.9-6.4 1.8-6.7 1.9-13.4 1.8-11-.1-16.6-4.6-11.7-9.5 3-3 11.4-4.8 24.9-5.2l6.7-.3.1 3.3zM817 287c-.5.3-.9 8.9-.9 19.2v18.6l3.2.3c1.8.2 4.6.2 6.3-.1l3-.5v-18.9l-.1-18.9-5.3-.1c-2.9-.1-5.7.1-6.2.4zM54.9 363c0 1.4-.1 5.1-.1 8.2 0 5.4-.2 5.7-2.2 5.3-21.9-5.2-45.5.4-51 12-3.6 7.5-.4 16.8 7.4 21.6 9.3 5.7 29.9 5.9 44.5.3 1-.4 1.5 0 1.5 1.3 0 1.7.8 2 6.5 2.1 3.6.1 6.6-.2 6.6-.6.3-1.9.6-49.9.3-51.2-.3-1.1-1.9-1.5-6.9-1.5-6.3 0-6.5.1-6.6 2.5zm-2.4 19c2.3.9 2.4 1.2 2.4 11.5v10.6l-2.7 1c-5.7 2.3-13.1 3.6-19.8 3.4-11.7-.3-17.2-4.1-17.9-12.2-.7-7.6 3.8-12.7 13-14.8 5.5-1.3 21.2-1 25 .5zM336.9 362c-.1 2.4-.1 41.9 0 47.2l.1 4.7 6.3-.1c3.4-.1 6.4-.5 6.7-.9.3-.5 3.5-.2 7 .5 7.4 1.6 21 1.4 28.8-.4 10.9-2.5 19.2-10.6 19.2-18.7 0-12.3-10.5-19.4-29-19.5-8.5-.1-12.3.5-23.6 3.7-2 .6-2 .3-1.9-8.4.1-5-.1-9.2-.4-9.2-.3-.1-3.4-.2-6.8-.3-5.1-.2-6.3.1-6.4 1.4zm47.3 20.8c3.5 1.5 6.8 6.7 6.8 11 0 5.9-2.3 9.7-7.6 12.3-4.4 2.1-6.2 2.4-16.9 2.4-7-.1-12.8-.5-14-1.2-1.7-1-1.9-2.3-2-11.7-.1-10.4-.1-10.5 2.5-11.5 5.5-2 6.7-2.3 12-2.8 3-.3 5.6-.6 5.7-.7.6-.5 11.1 1.2 13.5 2.2zM419.9 362.4c-.1 2.6-.1 48.6 0 50.2.1.8 2.5 1.1 6.8 1l6.8-.1v-26.3c0-16.9-.3-26.2-1-26.3-.5-.1-3.6-.2-6.7-.4-5.3-.2-5.8-.1-5.9 1.9zM302 365.7v3.3h15.6l-.1-3.2-.2-3.3H302v3.2zM453 365.7v3.3h16v-3c0-1.7-.3-3.1-.7-3.1-.5-.1-4.1-.2-8-.3l-7.3-.2v3.3zM215.2 388.4v25.4l25.2-.2c13.9-.2 25.7-.6 26.3-.9.6-.4 2.8-.9 4.9-1.3 3.8-.6 11.2-4 14.7-6.8 1-.8 2.1-3.3 2.4-5.5.5-3.6.2-4.4-2.6-7-3-2.9-10.6-6.1-14.3-6.1-1 0-1.8-.4-1.8-.8 0-.5.6-.9 1.3-.9.8 0 3.4-1 5.9-2.2 5.4-2.6 7.7-6.7 6-10.6-3-6.6-12.4-8.5-43.9-8.5h-24.1v25.4zm45.8-18.9c11.2 2.1 10.4 11-1.3 13.1-6.8 1.2-28.7 1.2-29.5 0-1.2-2-.8-13.1.6-13.6 1.7-.7 25.7-.3 30.2.5zm3 20.8c9.1 1.8 12.9 8.3 7.4 12.6-4.3 3.4-9 4.2-25.9 4.8l-16 .5.2-6.8c.1-3.8.2-8.2.2-9.7l.1-2.8 14.5.2c8 .1 16.8.6 19.5 1.2zM570.4 365.4c-.2.6-.5 3.1-.6 5.6l-.3 4.5h-4c-3.6 0-4 .3-4.3 2.7-.3 2.7-.2 2.8 4.2 2.8h4.6v11.5c0 13.3 1 16.3 6.4 18.9 4.4 2.1 14 3.4 21.9 3 9.2-.5 10.7-1 10.7-3.9 0-2.4 0-2.4-8.5-2-8.4.4-13.5-.5-15.4-2.9-.9-1.1-1.4-9.5-1.2-19.9l.1-4.7h25v-5.6l-12.1.1c-6.6 0-12.3-.3-12.6-.8-.3-.5-.5-2.9-.5-5.3.1-2.4-.2-4.4-.6-4.5-4.7-.7-12.5-.3-12.8.5zM114.5 374.7c-6.9.7-15.3 2.6-19.4 4.4-15.3 6.7-16.1 23.4-1.6 30.3 9.2 4.4 28.9 6.2 45.5 4.3 11.7-1.4 13-2 13-6.6 0-2-.4-2.3-2.7-1.8-1.6.3-6.6 1.3-11.3 2.2-10.1 2-24 1.5-31.2-1-5.1-1.8-10.1-6.7-9.6-9.4.3-1.4 3.3-1.6 27.6-1.7 29.8 0 29.5 0 28.2-5.8-1.7-7.8-7.9-12.3-19.5-14.1-4.2-.7-15.4-1.1-19-.8zm20.8 8.3c3.5 2.4 5.4 5.9 3.8 7-.7.4-38.2.5-41.3.1-1.3-.2-.9-1.7 1.1-4 3.7-4.2 10.5-6 22.2-5.8 9.4.2 11 .5 14.2 2.7zM512.8 374.5c-.2.1-2.5.5-5.3.8-11.6 1.3-21.1 6.4-23.8 12.7-6.8 16.3 9.6 27.6 38.3 26.5 21-.9 33-8.1 33-20 0-9.1-9.5-17-23.1-19-4.6-.7-18.6-1.4-19.1-1zm14.9 6.5c17.8 3.7 17.5 23.7-.4 27.5-5.1 1-14 .8-19.5-.6-5.1-1.4-10.7-6.2-10.9-9.7-.1-.9-.3-2.8-.4-4.2-.3-2.9 1.5-6.8 4.3-9.3 4.5-4.1 16.9-5.7 26.9-3.7zM641.2 375.2c-16.9 1.9-27.2 9.4-27.4 19.7-.1 7.3 5 12.9 14.7 16.1 8.2 2.7 11.4 3.1 23.3 3.4 9 .2 28.9-1.8 30.2-3 .2-.3.5-2.1.5-4 .1-2.8-.1-3.4-1.4-2.8-4.8 2-17.8 4.1-25.8 4.2-14.1.1-24-3.2-26.4-8.9-.6-1.6-1.1-3.2-1-3.6.1-.4 12.4-.9 27.3-1 15-.1 27.6-.2 28.1-.2.4-.1.7-1.9.7-4.1 0-6.1-5.3-11.4-13.9-14-7.3-2.2-19.2-3-28.9-1.8zm20.1 5.8c4.5 1.2 7.8 3.8 9 7.2.8 2.2 2.4 2-22 2.2-14.2.1-20.3-.2-20.3-1 0-2.2 4-5.6 8.6-7.3 5.6-2.2 18.2-2.7 24.7-1.1zM718.2 375.7c-14.8 2.3-23.2 7.6-25 15.9-1 4.6.4 10.1 3.4 13.5 2.6 2.9 11.1 6.7 18.4 8.2 9.6 1.9 27.1 1.4 36.5-1.1 2.5-.7 3-1.4 3.3-4.4l.3-3.5-7.8 2.2c-8.7 2.6-21.1 3.1-28.4 1.1-2.5-.6-6-2.6-8.2-4.8-3.8-3.6-3.9-3.9-3.5-8.9.5-4.4 1.1-5.7 3.9-8.1 8-6.6 23.8-7.1 41.7-1.4 2.2.7 2.3.5 2-3.1l-.3-3.8-6.7-1.2c-10.1-1.8-20.4-2-29.6-.6zM790.7 374.6c-.1.1-4.8.4-10.5.7-5.6.3-10.7.9-11.2 1.2-.6.3-1 1.9-1 3.6 0 2.7.2 2.9 3.3 2.4 17.5-2.7 32.4-2.7 37.5-.1 2.7 1.4 4.2 3.4 4.2 5.6 0 .4-3.9.8-8.7.9-26.1.6-39.7 4.2-42.1 10.9-2.2 6.4 3.8 11.9 15.4 14.1 7.2 1.4 20.9.6 28.4-1.8 3.6-1.1 6.6-2.1 6.8-2.1.1 0 .2.9.2 1.9 0 1.7.7 1.9 6.4 1.9 5-.1 6.5-.4 6.8-1.7.2-.9.4-7.5.3-14.8-.1-11.6-.3-13.5-2.1-15.4-4-4.4-11.9-6.7-25.2-7.2-4.6-.1-8.4-.2-8.5-.1zm22.1 24.6l-.3 5.3-5.5 1.9c-8.2 2.7-21.4 3-26.8.6-3.8-1.7-4.3-2.3-4-4.7.6-5.1 9.3-7.5 29.6-8.1l7.3-.3-.3 5.3zM863.3 375.1c-16.3 1.6-25.2 7.8-20.9 14.4 2.9 4.4 9.9 6.7 24.6 8 14.7 1.4 20 3.4 18.7 7-1.9 4.8-20.5 5.9-35.9 2.1l-8.8-2.2v3.7c0 3.6.1 3.7 4.3 4.4 2.3.4 5.6.9 7.2 1.2 1.7.3 7.5.6 13 .7 22.3.6 36.6-5.2 33.9-13.8-1.6-5-8.8-7.4-26.9-9.1-13.7-1.2-18.7-3.4-16.7-7.2.7-1.2 2.9-2.5 5.4-3.1 5.5-1.4 21.6-.7 29.1 1.3 3.2.8 6 1.5 6.2 1.5.3 0 .5-1.5.5-3.4 0-3.9-1.1-4.3-14-5.2-4.1-.3-8.6-.6-10-.8-1.4-.1-5.7.1-9.7.5zM303.8 376.1c-.9.6-1 4.6-.9 28.5l.1 9.1 5.3.1c8.9.1 8.3 1.5 8.1-19-.1-10.1-.2-18.5-.3-18.8-.1-.8-11-.7-12.3.1zM454.4 375.9c-.2.2-.4 8.9-.4 19.3V414l6.9-.2 6.8-.2.1-17.5c0-9.7-.2-18.3-.4-19.2-.3-1.1-1.8-1.5-6.5-1.5-3.3.1-6.2.3-6.5.5zM638.8 424.1c-30 7.1-51.3 33.1-50.7 61.9.6 29.3 20.1 52.7 50.8 60.9 5.6 1.4 9.9 1.8 18.5 1.6 12.1-.3 13.8-.5 22.9-3.7 9.6-3.3 17.6-8.5 25.9-16.8 11.6-11.8 17.9-26.2 17.9-41.7.2-42.2-41.5-72.6-85.3-62.2z"/><path d="M443.2 466L431 484.1l1.5 2.9c.8 1.6 9.7 15.9 19.6 31.7 10 15.9 18.3 29.3 18.6 30 .2.6-1.6 2-4 3.1-6.1 2.7-13 9.3-15.8 15-3.5 7.3-3 15.4 1.9 35.4 5.5 21.7 10.1 37.5 16.8 57.6 3.1 8.9 5.3 16.6 5 17.1-1.1 1.7-39.7 32.3-40.2 31.8-.3-.3-3.7-10.6-7.5-22.8-3.9-12.3-8.3-26.5-9.9-31.4-1.6-5-6.9-21.9-11.8-37.6-4.9-15.7-9.6-29.8-10.5-31.5-2.9-5.5-8.5-11-14.3-13.9l-5.9-3-22 .1c-12.1 0-33.7.4-48 .7-14.3.4-38.4 1-53.5 1.3-15.1.3-30 .7-33 .9-5 .2-5.9 0-9.1-2.9-1.9-1.7-4.6-4-6-5.1-1.3-1.1-4.9-4-7.9-6.5s-5.7-4.7-6-5c-3-3.3-19.5-15.8-23-17.4-7-3.2-19.7-2.9-27.2.6-16.7 7.8-24.5 24.6-17.7 38.2 2.4 4.8 5.6 8 22.9 22.2 5.2 4.3 9.7 8.1 10 8.4.3.3 3 2.5 6 5s5.7 4.7 6 5c.3.3 5.9 5 12.5 10.5s12.9 10.8 14 11.7c3.8 3.2 42 35 46.4 38.7 2.5 2 6.3 5.2 8.6 7.1 7 5.9 12.4 10.4 63.5 53 27.2 22.7 51.5 43 54 45 2.5 2.1 9.2 7.7 15 12.6 5.8 4.8 13.7 11.7 17.5 15.4 16.3 15.7 33 22.6 52.9 22.2 16.2-.4 29.6-6.6 47.7-22 1.3-1.1 9.9-8 19-15.4 26.9-21.5 56.4-45.3 56.9-45.8.3-.3 8.4-6.8 18-14.5s17.7-14.2 18-14.5c.3-.3 3.9-3.2 8-6.5s8.4-6.8 9.5-7.7c1.1-.9 11.9-9.6 24-19.4 12.1-9.7 23.4-19.1 25-20.8 1.7-1.7 12.7-11.2 24.5-21s22.6-18.8 24-20c1.4-1.2 6.6-5.5 11.5-9.6 5-4.1 9.9-8.2 11-9.2 11.1-9.3 18.4-15.4 20.5-17.2 1.4-1.1 10.4-8.7 20-16.7 19.6-16.3 19.9-16.7 23-22.6 11.6-22.5-20.4-49.4-45.3-38-2.9 1.3-8.6 5.2-12.7 8.6-4.1 3.4-8.4 7-9.5 7.9-1.1.9-4.5 3.7-7.5 6.2s-5.7 4.7-6 5c-.3.3-4.5 3.9-9.5 8-4.9 4.1-9.9 8.3-11 9.2-20.9 17.9-42 34.6-42.9 34.1-.6-.4-2.9-2-5.2-3.5-5.3-3.6-17.4-8.4-24.4-9.7-7.2-1.3-23.2-.6-29.1 1.3-8.4 2.6-16.1 6.8-24.8 13.4-4.7 3.6-9.1 7.1-9.7 7.6-1.3 1.3-2.7 2.3-26.4 21.5-9.6 7.7-17.8 13.7-18.1 13.3-.8-.7-10.5-34.4-11.4-39-.2-1.5-.9-4.3-1.5-6.2-1.4-4.8-1.4-4.8 2-6.5 1.7-.9 3-2.2 3-2.9 0-.8 2.3-3.4 5.2-5.9l5.2-4.4-2.5-4C519.4 547.6 456.4 448 456 448c-.3 0-6.1 8.1-12.8 18zm15.5-1.3c1.7 2.7 5.4 8.6 8.3 13.3 2.9 4.7 6.7 10.7 8.5 13.5 1.8 2.7 5.7 8.9 8.6 13.7 3 4.7 11.3 17.9 18.4 29.2 7.2 11.3 14.5 23.1 16.4 26.2l3.3 5.6-2.8 2.3-2.9 2.3-4.1-6.6c-2.3-3.7-5.8-9.2-7.7-12.2-1.9-3-13.7-21.8-26.2-41.8l-22.7-36.3-6.5 3.6c-3.6 2-6.7 3.4-6.9 3.3-.2-.3 12.7-20.7 13.2-20.8 0 0 1.4 2.1 3.1 4.7zM342.6 633.5c.7 2.2 5.3 17 10.3 32.9 5.1 15.9 9 29 8.9 29.2-.3.2-18.3-14.5-32.4-26.5-1.7-1.4-12.6-10.5-24.1-20.1-11.6-9.6-20.9-17.8-20.7-18.1.1-.3 7.4-.6 16.1-.8 8.6-.1 15.8-.3 15.9-.4.1-.1 5.8-.2 12.5-.2h12.3l1.2 4z"/><path d="M8.7 545.7c-4.2 3.1-7.4 6-7.1 6.4.2.4 9.3 8.6 20.2 18.1 10.8 9.5 19.9 17.5 20.2 17.8.3.3 11.8 10.5 25.5 22.5 13.8 12.1 25.5 22.4 26.1 23 .6.5 4.2 3.7 7.9 7 3.8 3.3 7.3 6.4 7.9 7 .6.5 4.5 3.9 8.6 7.5s7.7 6.7 8 7c.3.3 4.1 3.6 8.5 7.5 4.4 3.8 8.5 7.4 9.1 8 .6.5 4.2 3.7 8 7 9.4 8.3 27 23.8 32.8 29 .6.5 10.1 8.9 21.1 18.5 11 9.6 20.5 17.9 21.1 18.5.6.5 8 7.1 16.4 14.5 8.5 7.4 19.7 17.3 25 22 5.3 4.7 12.7 11.2 16.5 14.6 3.9 3.4 9.5 8.3 12.5 11 3 2.6 6.6 5.7 7.9 6.9 1.3 1.1 3.4 2.9 4.5 4 1.2 1.1 5.5 4.9 9.6 8.5 6.6 5.7 11.8 10.3 15.4 13.5.6.5 2.9 2.6 5.2 4.5 7.8 6.8 18.7 16.5 23.3 20.8 10.9 10.2 27.1 19.8 41.7 24.6 30.7 10.1 64 5.8 93.9-12.2 5.7-3.4 19.4-12.9 20.5-14.2.3-.3 5.2-4.4 11-9s10.7-8.7 11-9c.3-.3 2.5-2.1 5-4s5-3.9 5.6-4.5c.6-.5 12.7-10.4 26.8-22 22.1-18 63-51.3 76.1-62 2.2-1.8 15.5-12.6 29.5-24.1 14-11.4 31.6-25.7 39-31.7 7.4-6 14.9-12.1 16.5-13.6 1.7-1.4 5-4.2 7.5-6.1 2.5-1.9 4.7-3.7 5-4 .3-.3 4.1-3.4 8.5-7s8.9-7.3 10-8.2c1.1-.9 12.4-10 25-20.3 12.7-10.2 24.8-20.1 27-22 2.2-1.8 10.8-8.8 19-15.5 8.3-6.7 16.6-13.4 18.5-15 26.6-21.6 39.5-32.4 39.8-33 .1-.3-3-3.4-7.1-6.7l-7.3-6-3 2.4c-4.4 3.8-6.5 5.4-11.9 9.8-2.7 2.2-6.1 5-7.5 6.1-1.4 1.2-10.4 8.6-20 16.4-20.5 16.7-28.4 23.1-56.1 45.7-11.3 9.2-30.8 25.1-43.4 35.3-12.5 10.2-23.3 19-23.9 19.5-.6.6-13.5 11.1-28.6 23.4-15.1 12.3-29.5 23.9-31.8 25.9-3.7 3-58.1 47.4-86.5 70.5-4.9 4-10.1 8.2-11.5 9.4-1.5 1.2-15.7 12.8-31.7 25.9-29.7 24.3-42.8 33.8-52.5 38-3 1.4-6.2 2.9-7.1 3.3-.8.5-4.9 1.8-9 2.9-19.8 5.4-35.1 4.6-53.6-2.8-7.2-2.9-21.4-11.5-25.8-15.6-1.1-1.1-5.8-5.3-10.5-9.4-4.7-4.1-8.7-7.7-9-8-.3-.3-7.9-7-17-15s-17-14.9-17.6-15.5c-.6-.5-4.2-3.7-7.9-7-3.8-3.3-7.3-6.5-7.9-7-1.6-1.4-25.5-22.5-29-25.5-1.7-1.4-5.5-4.8-8.6-7.5-9.6-8.6-20.3-18-24.5-21.6-2.1-1.9-4.6-4.1-5.5-4.9-1.5-1.3-10-8.8-15.6-13.7-1.2-1-5.2-4.5-9-7.9-8.4-7.5-15.9-14-19.9-17.5-13.6-11.9-23.6-20.8-27-23.8-2.2-2-7.4-6.5-11.5-10.1-11.1-9.7-14.1-12.3-16.4-14.5-1.2-1.1-13.1-11.7-26.6-23.5-13.5-11.8-25-21.9-25.6-22.5-1.7-1.6-7.2-6.4-15.4-13.5-4.1-3.6-7.7-6.7-8-7-.3-.3-5.9-5.3-12.5-11-6.6-5.8-12.2-10.7-12.5-11-2.7-2.7-23.9-21.2-26-22.7-1.5-1-2.9-.3-9.3 4.4z"/></svg>